<svg xmlns="http://www.w3.org/2000/svg" viewBox="0 0 197.1 147.3"><g id="Layer_2" data-name="Layer 2"><g id="Layer_1-2" data-name="Layer 1"><path d="M0,0H20.1V131.5H85.9v15.8H0Z" fill="#231f20"/><path d="M109.1,0h88V15.8H129.2V63.6h62.1V79.4H129.2v52.1h67.9v15.8h-88Z" fill="#231f20"/><rect x="31.7" y="12.1" width="65.1" height="64.94" transform="translate(19.8 108.8) rotate(-90)" fill="#f6893e"/><path d="M74.6,120.5l-1.8-2c3.3-1.5,4.9-5,4.9-8.7s-2.6-7.2-6.2-7.2-4.6,1.6-5.6,5.5L65,112q-1.7,7.2-7.8,7.2c-4.9,0-8.8-4-8.8-9.9,0-4.2,2-8.1,5.1-9.6l1.8,2c-3,1.4-4.4,4.4-4.4,7.7s2.6,6.9,6.1,6.9,4.9-1.8,5.7-5.4l.8-4c1.1-4.6,3.8-7.2,7.9-7.2s8.7,4,8.7,10.2S78.1,118.9,74.6,120.5Z" fill="#231f20"/><path d="M48.9,82V79.1L79.7,67.5v3.1L72,73.5V87.7l7.7,2.9v2.9Zm20.9,5V74.2L52.1,80.6Z" fill="#231f20"/><path d="M48.9,59.5V56.9l21-12.3-21-12.3V29.9H79.7v2.6H54.1L73.4,43.9v1.6L54.1,56.8H79.7v2.7Z" fill="#231f20"/></g></g></svg>